<svg width="141" height="47" viewBox="0 0 141 47" fill="none" xmlns="http://www.w3.org/2000/svg">
<g clip-path="url(#clip0_3_30)">
<path d="M86.2493 22.5412C86.2493 24.5131 86.2493 26.4805 86.2493 28.4524C86.2493 29.3569 86.2493 30.1303 84.9526 30.0986C83.7423 30.067 83.756 29.3207 83.756 28.4976V17.8511C83.7697 17.3442 83.756 16.837 83.715 16.3315C83.6104 15.3863 83.2009 14.6988 82.0953 14.8119C80.9897 14.9249 80.7303 15.5174 80.7531 16.5531C80.8168 20.4381 80.7986 24.3231 80.794 28.2127C80.794 29.072 81.0352 30.076 79.5565 30.0986C78.0778 30.1213 78.2188 29.1941 78.2188 28.2896C78.2188 24.7437 78.2188 21.1934 78.2188 17.6476C78.2302 17.1405 78.212 16.6331 78.1642 16.128C78.0687 15.2868 77.6228 14.7712 76.7128 14.8119C75.8029 14.8526 75.3024 15.3229 75.3115 16.3225C75.3388 19.9406 75.3115 23.5317 75.3115 27.1363C75.3115 29.5785 74.7791 30.076 72.2904 30.0896C70.0155 30.0896 67.7405 30.1167 65.4656 30.0896C63.5183 30.0579 62.8768 29.5062 62.8495 27.5704C62.7858 23.5181 62.7858 19.4627 62.8495 15.4044C62.8813 13.4551 63.5137 12.8174 65.4474 12.8807C68.373 12.9847 71.3622 12.4013 74.2332 13.2696C74.7246 13.4144 75.1022 13.1294 75.5117 12.9576C76.7765 12.4329 78.055 12.2656 79.2471 13.0797C79.9159 13.532 80.3982 13.1611 80.9715 12.9485C84.0563 11.8043 86.1446 13.1928 86.2311 16.4762C86.2902 18.4843 86.2493 20.5105 86.2493 22.5412Z" fill="#9E00FF"/>
<path d="M118.248 12.1932C118.248 12.6998 118.248 13.2063 118.248 13.7174C118.248 16.0194 118.248 16.042 120.591 16.2637C121.269 16.3315 121.624 16.5215 121.652 17.2587C121.679 18.0908 121.274 18.2808 120.519 18.3305C118.244 18.4753 118.244 18.5069 118.244 20.7999C118.244 22.3784 118.221 23.9658 118.266 25.5307C118.303 26.7202 118.872 27.4483 120.191 27.3398C120.705 27.2991 121.365 26.8875 121.447 27.8689C121.516 28.2032 121.452 28.5512 121.268 28.8392C121.084 29.1272 120.794 29.3324 120.459 29.4112C117.782 30.3479 114.951 30.7714 112.115 30.6594C111.551 30.6278 110.987 30.5328 110.423 30.4695C107.392 30.1167 105.996 28.6604 105.873 25.6121C105.8 23.6402 105.823 21.6683 105.841 19.6964C105.841 18.8597 105.709 18.231 104.658 18.3124C103.916 18.3712 103.661 17.9823 103.675 17.2858C103.689 16.5893 103.989 16.2184 104.708 16.2817C105.814 16.3767 105.832 15.6757 105.841 14.8752C105.882 11.3158 105.272 12.0259 108.857 10.6781C111.084 9.84292 113.315 9.02129 115.55 8.21324C117.925 7.35392 118.23 7.56197 118.235 10.0223C118.276 10.7188 118.248 11.447 118.248 12.1932Z" fill="#9E00FF"/>
<path d="M59.6145 21.5643C59.6145 23.8709 59.6145 26.1774 59.6145 28.484C59.6145 29.0358 59.7237 29.7142 59.0776 29.9584C58.518 30.171 57.6808 30.3519 57.3442 29.8047C56.7436 28.8413 56.102 29.3524 55.456 29.5242C52.2438 30.3519 49.0134 30.7861 45.7193 30.1032C43.226 29.583 41.8611 28.2443 41.7519 25.7342C41.5926 22.1432 41.67 18.5386 41.67 14.943C41.67 13.55 42.5117 12.8807 43.8266 12.8626C46.4867 12.8174 49.1484 12.8174 51.8116 12.8626C53.4085 12.8852 54.1365 13.7671 54.132 15.3591C54.132 18.8461 54.132 22.3331 54.132 25.8201C54.132 26.4352 54.0865 27.0956 54.6461 27.5297C54.8818 27.6893 55.1541 27.7874 55.4379 27.8151C55.7217 27.8427 56.008 27.7991 56.2704 27.688C57.0803 27.4483 56.9938 26.7835 56.9938 26.1684C56.9938 22.2834 56.9938 18.4029 56.9938 14.5224C56.9938 13.8259 56.8482 12.9892 57.9447 12.8581C59.0412 12.7269 59.6418 13.1023 59.6191 14.3234C59.5827 16.7159 59.6145 19.1491 59.6145 21.5643Z" fill="#9E00FF"/>
<path d="M27.2106 30.7363C24.5216 30.5193 22.1603 30.2479 19.8808 29.5197C19.353 29.3524 18.7251 29.3072 18.848 28.475C18.9572 27.7604 19.2802 27.3488 20.0582 27.3579C21.9646 27.3579 22.7881 26.2634 23.002 24.5312C23.3341 22.0799 23.7618 19.6376 24.0621 17.1818C24.3533 14.7938 25.7728 13.4551 27.9704 12.8264C31.6922 11.759 35.3639 12.2023 38.9947 13.3375C39.5861 13.5229 39.9911 13.7897 39.9046 14.5405C39.8182 15.2913 39.5361 15.5355 38.8081 15.4993C37.1884 15.4134 36.6515 16.4401 36.4877 17.8195C36.2147 20.108 35.8507 22.3919 35.6733 24.6895C35.4367 27.8011 33.6395 29.4564 30.7685 30.1529C29.4946 30.474 28.1888 30.5961 27.2106 30.7363Z" fill="#9E00FF"/>
<path d="M101.896 21.4964C101.896 23.5769 101.896 25.6573 101.896 27.7332C101.919 29.2574 101.227 30.067 99.6758 30.0715C97.0688 30.0715 94.4663 30.0715 91.8592 30.0715C90.2759 30.0715 89.4842 29.2936 89.4979 27.6654C89.5252 23.5045 89.5252 19.3451 89.4979 15.1873C89.4979 13.5229 90.3805 12.8581 91.9275 12.849C94.4799 12.849 97.0278 12.849 99.5757 12.849C101.209 12.849 101.928 13.6541 101.896 15.2641C101.896 17.331 101.896 19.4296 101.896 21.4964Z" fill="#9E00FF"/>
<path d="M95.6902 11.162C94.9666 11.1632 94.2499 11.0227 93.581 10.7486C92.912 10.4744 92.3039 10.072 91.7915 9.56426C91.279 9.05652 90.8721 8.4534 90.5941 7.78935C90.3161 7.12531 90.1724 6.41334 90.1712 5.69409C90.1516 4.21134 90.7202 2.78054 91.7539 1.71146C92.7877 0.642372 94.2035 0.0210165 95.6947 -0.0180969C97.1849 0.00640985 98.607 0.606371 99.66 1.65479C100.713 2.7032 101.314 4.11778 101.337 5.59911C101.336 6.33368 101.189 7.06087 100.905 7.73879C100.62 8.41671 100.203 9.03194 99.6784 9.54904C99.1536 10.0661 98.531 10.4749 97.8465 10.7517C97.162 11.0286 96.4291 11.168 95.6902 11.162Z" fill="#9E00FF"/>
<path d="M136.129 40.5868C134.259 40.5868 133.522 41.4235 133.854 43.2462C134.05 44.3271 133.258 44.603 132.38 44.603C131.502 44.603 130.774 44.3497 130.751 43.3095C130.778 41.9079 130.67 40.5071 130.428 39.126C130.264 38.3752 130.66 37.5747 131.511 37.9139C132.917 38.4656 134.3 37.4616 135.665 38.1038C136.238 38.3661 136.375 37.7511 136.602 37.3757C137.426 36.0189 138.509 35.9917 139.241 37.3259C139.369 37.5612 139.57 37.7486 139.815 37.8596C141.057 38.5471 140.938 39.4516 139.956 40.1978C139.196 40.7768 139.237 41.3918 139.774 41.8622C140.451 42.4592 140.652 43.0381 140.201 43.7617C139.751 44.4854 138.941 44.6663 138.113 44.5894C137.681 44.5766 137.267 44.4168 136.94 44.1369C136.613 43.857 136.393 43.4739 136.316 43.0517C136.207 42.2342 136.145 41.4113 136.129 40.5868Z" fill="#9E00FF"/>
<path d="M70.3294 44.1869C68.5368 42.9703 68.4867 41.1205 68.1682 39.4607C67.9453 38.3028 69.292 37.7058 70.6024 38.3435C71.0252 38.6294 71.4104 38.9667 71.7489 39.3476C72.2449 38.2033 73.1139 37.9501 74.2377 38.3435C75.4616 38.7958 75.084 39.7818 74.9293 40.632C74.7351 42.0806 74.3654 43.5005 73.8282 44.8608C73.1867 46.2764 72.0993 47.0814 70.4932 46.9548C69.5832 46.8869 68.8734 46.5025 68.7551 45.4487C68.6369 44.3949 69.4103 44.2411 70.3294 44.1869Z" fill="#9E00FF"/>
<path d="M92.5008 44.1959C90.7673 42.8979 90.7673 41.1024 90.3077 39.5194C90.2277 39.3012 90.2296 39.0616 90.3132 38.8447C90.3968 38.6277 90.5564 38.4482 90.7627 38.339C91.5089 38.0586 92.3779 37.9727 93.0376 38.4928C93.6974 39.0129 93.9476 39.2481 94.6346 38.4928C95.1488 37.9184 95.9996 38.0903 96.6957 38.4566C97.3918 38.8229 97.3236 39.4561 97.2189 40.0802C97.0187 41.7578 96.5965 43.4017 95.9632 44.9693C95.2625 46.5025 93.6109 47.3166 92.2278 46.8598C91.477 46.6156 90.9493 46.1769 90.9538 45.2859C90.9584 44.3949 91.5862 44.2457 92.5008 44.1959Z" fill="#9E00FF"/>
<path d="M104.171 40.1843C104.171 39.3431 104.198 38.4973 104.171 37.6561C104.139 36.8872 104.335 36.2993 105.199 36.2088C106.064 36.1184 107.056 36.1591 107.229 37.2174C107.361 38.0405 107.725 38.1491 108.412 38.2486C109.858 38.4656 110.545 39.3612 110.514 40.8401C110.499 41.3988 110.582 41.9559 110.759 42.4864C110.902 42.7639 110.944 43.0817 110.878 43.3865C110.813 43.6912 110.644 43.9643 110.4 44.1597C110.152 44.3991 109.835 44.5546 109.494 44.6041C109.152 44.6537 108.804 44.5947 108.498 44.4356C107.834 44.0738 107.452 43.5311 106.542 44.3904C105.632 45.2497 104.298 44.3271 104.185 43.0336C104.185 42.9793 104.185 42.9205 104.185 42.8663L104.171 40.1843Z" fill="#9E00FF"/>
<path d="M81.9224 40.1526C81.9224 39.3069 81.9633 38.4657 81.9224 37.6244C81.8542 36.4666 82.5503 36.1364 83.5103 36.1862C84.4703 36.2359 85.3666 36.5616 85.0026 37.6742C84.6978 38.5787 85.3666 38.1491 85.5441 38.1762C87.0546 38.4204 88.0556 39.2074 88.274 40.736C88.4833 42.0929 88.3104 43.3909 87.0091 44.1462C86.3446 44.5234 85.5969 44.7322 84.832 44.7543C84.0671 44.7764 83.3085 44.611 82.6231 44.2728C82.0316 44.015 81.9315 43.4271 81.9269 42.8436C81.9269 41.9391 81.9269 41.0345 81.9269 40.1526H81.9224Z" fill="#9E00FF"/>
<path d="M28.5255 38.0812C30.7731 38.0812 31.4965 38.8003 31.6467 41.0933C31.6656 41.4847 31.7188 41.8736 31.8059 42.2557C32.2291 44.0014 31.3828 44.9286 29.713 44.3633C29.1124 44.1597 28.803 44.4447 28.3481 44.5396C27.8812 44.6744 27.384 44.6643 26.9231 44.5108C26.4621 44.3572 26.0592 44.0675 25.7683 43.6803C25.4633 43.3022 25.3043 42.8282 25.3202 42.3438C25.336 41.8594 25.5256 41.3966 25.8547 41.0391C26.0231 40.822 26.337 40.623 26.3507 40.4014C26.4917 38.1129 26.5236 38.0676 28.5255 38.0812Z" fill="#9E00FF"/>
<path d="M124.395 38.0857C127.075 38.0586 127.826 38.7687 127.994 41.1295C128.035 41.5723 128.112 42.011 128.226 42.4411C128.572 43.9246 127.621 44.906 126.17 44.4356C125.724 44.2841 125.238 44.3018 124.805 44.4854C124.322 44.6773 123.789 44.6994 123.292 44.548C122.795 44.3967 122.366 44.0809 122.075 43.6532C121.775 43.2709 121.624 42.7944 121.648 42.3105C121.672 41.8265 121.87 41.3673 122.207 41.0165C122.38 40.7994 122.739 40.4783 122.684 40.3788C121.265 37.742 123.608 38.4476 124.395 38.0857Z" fill="#9E00FF"/>
<path d="M20.1083 44.6799C17.8607 44.6482 16.4685 43.3231 16.4958 41.315C16.5231 39.3069 17.9608 38.0948 20.0947 38.1219C21.9146 38.1445 23.4434 39.2255 23.1021 40.5597C22.7973 41.7627 23.2614 43.115 22.5106 44.119C21.9965 44.811 20.9682 44.6934 20.1083 44.6799Z" fill="#9E00FF"/>
<path d="M116.56 44.6798C114.285 44.6798 112.866 43.4452 112.839 41.4235C112.811 39.4697 114.231 38.1264 116.333 38.1219C118.23 38.1219 119.863 39.2571 119.436 40.6139C119.058 41.817 119.645 43.1648 118.812 44.1552C118.276 44.7794 117.366 44.6889 116.56 44.6798Z" fill="#9E00FF"/>
<path d="M49.9871 44.603C49.5456 44.6931 49.0861 44.6096 48.7052 44.3701C48.3243 44.1306 48.0515 43.7537 47.9442 43.3185C47.6212 42.3642 47.2799 41.4145 46.8704 40.5009C46.552 39.7908 46.2653 38.9812 46.8704 38.4702C47.1985 38.1959 47.6134 38.0455 48.042 38.0455C48.4707 38.0455 48.8856 38.1959 49.2136 38.4702C49.9188 39.1034 50.2646 38.8003 50.8516 38.4249C51.1621 38.2225 51.5303 38.1254 51.901 38.1482C52.2717 38.1711 52.625 38.3126 52.9081 38.5516C53.1531 38.7471 53.3277 39.0163 53.4057 39.3189C53.4836 39.6215 53.4607 39.941 53.3403 40.2295C53.0628 41.1974 52.7443 42.1517 52.4303 43.0969C52.0027 44.2095 51.1609 44.6527 49.9871 44.603Z" fill="#9E00FF"/>
<path d="M6.34959 42.0431C6.80457 43.6442 5.9674 44.3723 4.52966 44.6391C2.51863 45.0236 0.79879 44.0557 0.434803 42.3235C0.134513 40.9305 0.284659 39.5692 1.59501 38.7053C2.26847 38.2269 3.08169 37.9823 3.90901 38.0093C4.73633 38.0362 5.53168 38.3333 6.17215 38.8546C6.41784 39.6506 6.85917 40.4783 6.0584 41.1974C5.06199 42.1019 4.17022 41.1974 3.02366 40.7225C3.86083 42.5451 5.13478 42.1924 6.34959 42.0431Z" fill="#9E00FF"/>
<path d="M67.19 39.2888C67.149 39.94 67.0626 40.528 66.189 40.5642C64.9879 40.6139 64.9651 41.3918 65.6021 41.9934C66.6122 42.9431 66.3619 43.6577 65.4247 44.2954C65.1594 44.4583 64.8634 44.5652 64.5549 44.6096C64.2464 44.654 63.932 44.6349 63.6312 44.5535C63.3304 44.4721 63.0497 44.3301 62.8064 44.1363C62.5631 43.9425 62.3625 43.7011 62.217 43.4271C61.6665 42.2376 62.2716 40.8717 61.307 39.6054C60.6792 38.7867 63.0451 36.3219 64.128 36.4395C64.5329 36.4802 64.9742 36.4937 65.0379 37.0048C65.0297 37.1314 65.0514 37.2581 65.1012 37.3749C65.151 37.4917 65.2275 37.5953 65.3248 37.6775C65.422 37.7596 65.5372 37.8181 65.6612 37.8481C65.7852 37.8782 65.9145 37.879 66.0389 37.8506C67.0853 37.7827 67.1854 38.4973 67.19 39.2888Z" fill="#9E00FF"/>
<path d="M34.5131 41.532C34.5422 41.3044 34.5161 41.0731 34.4369 40.8575C34.3578 40.6419 34.2279 40.4483 34.0581 40.2928C32.8205 38.936 35.0909 38.0541 35.423 36.7425C35.5641 36.1319 36.788 36.1726 37.243 36.548C37.8708 37.0817 37.9937 38.0088 38.7808 38.633C39.4542 39.1621 39.1949 40.2431 38.0801 40.7496C37.6798 40.935 37.7389 41.6542 38.1029 41.9346C38.7763 42.4502 39.1357 42.9748 38.6398 43.7436C38.1438 44.5125 37.3795 44.6482 36.5559 44.5623C35.646 44.4582 34.9408 44.0467 34.736 43.0833C34.6314 42.717 34.6132 42.3235 34.5131 41.532Z" fill="#9E00FF"/>
<path d="M55.8654 40.32C55.7062 39.3928 56.0383 38.4702 55.6607 37.5114C55.3923 36.8375 55.8199 36.2088 56.4296 35.7927C56.7037 35.5871 57.0401 35.4804 57.3833 35.4903C57.7265 35.5002 58.0561 35.626 58.3178 35.847C58.6129 36.0267 58.8393 36.299 58.9613 36.6209C59.0832 36.9428 59.0937 37.2959 58.9912 37.6244C58.4133 39.2843 58.8501 40.9034 59.1595 42.4954C59.3779 43.6306 59.0412 44.3045 58.0221 44.5351C57.0029 44.7658 56.0656 44.318 55.8927 43.1783C55.8128 42.2275 55.8037 41.2721 55.8654 40.32Z" fill="#9E00FF"/>
<path d="M44.5045 37.2445C43.9586 39.1938 44.2952 41.0752 44.7184 42.9703C44.9049 43.807 44.3271 44.3587 43.5263 44.5351C43.3093 44.6045 43.0802 44.6289 42.8532 44.6069C42.6263 44.5849 42.4063 44.5169 42.2068 44.4072C42.0073 44.2974 41.8325 44.1482 41.6933 43.9688C41.554 43.7893 41.4532 43.5834 41.397 43.3637C41.2873 42.8189 41.2354 42.2641 41.2423 41.7084C41.0876 40.2747 41.4516 38.8455 41.1604 37.3892C40.9466 36.3038 41.6791 35.5349 42.8211 35.5304C43.8812 35.5259 44.4044 36.2405 44.5045 37.2445Z" fill="#9E00FF"/>
<path d="M10.8312 44.6075C10.0076 44.5577 9.20231 44.4266 9.20686 43.3457C9.20637 42.1145 9.09829 40.8858 8.88382 39.6732C8.68818 38.5199 9.25691 37.8641 10.4399 38.3164C11.277 38.6194 11.9823 38.3164 12.7512 38.244C13.5201 38.1717 14.4119 38.2124 14.5302 39.3069C14.6348 40.2657 14.5302 41.1974 13.2653 41.2245C11.9004 41.2562 12.3553 42.2738 12.3553 42.9296C12.3872 44.0241 12.046 44.6482 10.8312 44.6075Z" fill="#9E00FF"/>
<path d="M6.34958 42.0431C5.14842 42.1788 3.87447 42.5316 3.0282 40.7315C4.17476 41.2109 5.06653 42.0883 6.06294 41.2064C6.86371 40.4873 6.42238 39.6596 6.17669 38.8636C7.47794 39.8722 6.59982 40.9803 6.34958 42.0431Z" fill="#9E00FF"/>
</g>
<defs>
<clipPath id="clip0_3_30">
<rect width="140.413" height="47" fill="white" transform="translate(0.293762)"/>
</clipPath>
</defs>
</svg>
